<?xml version="1.0" encoding="UTF-8"?>
<svg xmlns="http://www.w3.org/2000/svg" version="1.1" viewBox="0 0 3300 3301">
  <defs>
    <style>
      .cls-1, .cls-2 {
        fill: #ffffff;
      }

      .cls-3 {
        fill: #29262c;
      }

      .cls-3, .cls-4, .cls-2 {
        fill-rule: evenodd;
      }

      .cls-5 {
        isolation: isolate;
      }

      .cls-6, .cls-4 {
        fill: #29262c;
      }
    </style>
  </defs>
  <!-- Generator: Adobe Illustrator 28.6.0, SVG Export Plug-In . SVG Version: 1.2.0 Build 709)  -->
  <g>
    <g id="Layer_1">
      <g id="circle">
        <path class="cls-2" d="M1291,1363c0-488.772,396.23-885,885-885s885,396.228,885,885-396.23,885-885,885-885-396.23-885-885Z"/>
        <g class="cls-5">
          <path class="cls-6" d="M1669.305,1123.707v138.904c0,41.528,15.752,62.65,43.676,62.65,28.641,0,44.393-20.048,44.393-62.65v-138.904h54.416v135.324c0,74.465-37.59,109.907-100.599,109.907-60.86,0-96.66-33.652-96.66-110.623v-134.608h54.774Z"/>
          <path class="cls-6" d="M1897.49,1169.531h-64.798v-45.824h185.444v45.824h-65.872v195.469h-54.774v-195.469Z"/>
          <path class="cls-6" d="M2239.162,1272.636c-1.073-28.998-2.147-64.082-2.147-99.167h-1.074c-7.518,30.788-17.542,65.156-26.851,93.438l-29.355,94.154h-42.603l-25.776-93.438c-7.876-28.281-16.109-62.649-21.838-94.154h-.716c-1.432,32.578-2.506,69.811-4.296,99.883l-4.296,91.648h-50.479l15.395-241.293h72.674l23.628,80.55c7.519,27.925,15.036,57.997,20.406,86.278h1.074c6.802-27.924,15.036-59.786,22.912-86.636l25.776-80.192h71.242l13.246,241.293h-53.343l-3.58-92.364Z"/>
        </g>
        <g class="cls-5">
          <path class="cls-6" d="M1614.888,1409.929c17.543-2.864,43.677-5.012,72.675-5.012,35.8,0,60.86,5.37,78.044,18.974,14.32,11.456,22.196,28.282,22.196,50.479,0,30.788-21.838,51.91-42.602,59.429v1.073c16.825,6.803,26.134,22.912,32.22,45.108,7.518,27.208,15.036,58.713,19.69,68.021h-55.849c-3.938-6.802-9.666-26.492-16.826-56.206-6.444-30.072-16.826-38.307-39.022-38.664h-16.468v94.87h-54.059v-238.071ZM1668.946,1513.749h21.48c27.208,0,43.318-13.604,43.318-34.726,0-22.196-15.036-33.294-40.097-33.652-13.246,0-20.764,1.074-24.702,1.79v66.588Z"/>
          <path class="cls-6" d="M1991.25,1558.5c0,64.082-45.467,93.438-92.364,93.438-51.194,0-90.575-33.652-90.575-90.217s37.232-92.723,93.438-92.723c53.7,0,89.501,36.874,89.501,89.501ZM1864.518,1560.29c0,30.071,12.529,52.626,35.8,52.626,21.122,0,34.727-21.122,34.727-52.626,0-26.135-10.024-52.627-34.727-52.627-26.134,0-35.8,26.851-35.8,52.627Z"/>
          <path class="cls-6" d="M2017.167,1648c.716-11.456,1.432-32.578,1.432-52.269v-201.913h54.416v99.883h.716c10.383-15.036,28.641-24.702,52.984-24.702,41.887,0,72.675,34.727,72.316,88.427,0,63.008-40.096,94.513-80.192,94.513-20.406,0-40.096-7.519-52.626-28.282h-.716l-2.148,24.344h-46.182ZM2073.015,1573.535c0,3.58.358,6.803,1.074,9.667,3.58,14.678,16.11,25.775,31.862,25.775,23.27,0,37.59-17.899,37.59-49.404,0-27.208-12.172-48.688-37.59-48.688-14.679,0-28.282,11.098-31.862,26.85-.716,3.222-1.074,6.444-1.074,10.024v25.775Z"/>
          <path class="cls-6" d="M2400.368,1558.5c0,64.082-45.467,93.438-92.364,93.438-51.194,0-90.575-33.652-90.575-90.217s37.232-92.723,93.438-92.723c53.7,0,89.501,36.874,89.501,89.501ZM2273.636,1560.29c0,30.071,12.529,52.626,35.8,52.626,21.122,0,34.727-21.122,34.727-52.626,0-26.135-10.024-52.627-34.727-52.627-26.134,0-35.8,26.851-35.8,52.627Z"/>
          <path class="cls-6" d="M2488.47,1422.817v50.12h39.022v40.096h-39.022v63.366c0,21.122,5.012,30.788,21.48,30.788,6.802,0,12.172-.716,16.109-1.432l.358,41.17c-7.16,2.864-20.048,4.654-35.442,4.654-17.542,0-32.22-6.086-40.812-15.036-10.023-10.382-15.036-27.208-15.036-51.91v-71.601h-23.27v-40.096h23.27v-37.948l53.343-12.172Z"/>
          <path class="cls-6" d="M2611.402,1424.249c0,15.036-11.456,27.208-29.355,27.208-17.185,0-28.641-12.172-28.282-27.208-.358-15.752,11.098-27.566,28.64-27.566s28.641,11.814,28.998,27.566ZM2555.196,1648v-175.062h54.416v175.062h-54.416Z"/>
          <path class="cls-6" d="M2778.19,1643.704c-9.666,4.296-27.924,7.876-48.688,7.876-56.563,0-92.722-34.368-92.722-89.5,0-51.194,35.084-93.081,100.24-93.081,14.32,0,30.072,2.506,41.528,6.802l-8.593,40.455c-6.443-2.864-16.109-5.37-30.43-5.37-28.64,0-47.256,20.405-46.898,49.046,0,32.22,21.48,49.046,47.973,49.046,12.888,0,22.912-2.147,31.146-5.37l6.444,40.097Z"/>
          <path class="cls-6" d="M2804.284,1600.386c10.023,6.086,30.788,13.246,46.897,13.246,16.469,0,23.271-5.728,23.271-14.678s-5.37-13.246-25.776-20.049c-36.158-12.172-50.12-31.861-49.762-52.626,0-32.578,27.924-57.28,71.242-57.28,20.406,0,38.664,4.654,49.404,10.024l-9.666,37.59c-7.876-4.296-22.912-10.024-37.948-10.024-13.246,0-20.765,5.37-20.765,14.32,0,8.234,6.803,12.53,28.282,20.048,33.295,11.456,47.257,28.282,47.614,54.059,0,32.578-25.775,56.564-75.896,56.564-22.912,0-43.317-5.012-56.563-12.172l9.666-39.022Z"/>
        </g>
      </g>
      <g id="hand">
        <g>
          <path class="cls-3" d="M467,2300.09c79.42,200.28,179.46,446.42,350.51,607.71,116.08,89.44,273.39,32.11,428.41,32.11l536.08-954-843.07-233.91-471.93,548.09Z"/>
          <path class="cls-1" d="M990.47,2983.228c-12.349,0-24.606-.405-36.799-1.335-60.713-4.628-110.285-22.332-151.546-54.124l-.995-.767-.914-.861c-78.383-73.911-148.585-170.671-214.617-295.811-54.861-103.969-98.489-211.142-142.032-320.948l-5.624-14.181,492.318-571.768,889.472,246.785-559.063,994.899h-14.75c-43.033,0-87.23,4.657-129.973,9.162-43.38,4.57-84.917,8.947-125.478,8.947ZM833.87,2888.577c74.752,56.854,172.903,46.512,276.793,35.563,39.267-4.138,79.724-8.401,120.415-9.276l513.188-913.263-796.667-221.036-451.542,524.411c72.594,182.898,171.851,426.545,337.812,583.601Z"/>
        </g>
        <g>
          <path class="cls-4" d="M829.11,670l-98.11,97.926,32.7,216.466,179.01,666.578,5.16,79.03,246.13-44.67-48.19-139.16-6.89-15.46-104.99-381.391-99.83-456.985-104.99-22.334Z"/>
          <path class="cls-1" d="M924.557,1759.852l-6.84-104.752-178.731-665.54-.211-1.403-34.604-229.069,116.81-116.59,134.276,28.564,103.158,472.217,104.306,378.906,6.557,14.712.354,1.023,57.816,166.959-302.89,54.972ZM788.414,979.224l179.288,667.615,3.481,53.309,189.37-34.368-38.209-110.339-7.223-16.207-105.818-384.536-96.358-441.093-75.705-16.104-79.41,79.261,30.584,202.461Z"/>
        </g>
        <g>
          <path class="cls-3" d="M781.35,383.289c-152.67,21.262-131.94,403.311-79.76,437.76,32.3,33.638,88.34-13.426,138.09-22.934,59.18-7.789,140.53,13.636,160.38-37.556,10.42-151.817-66.04-398.532-218.71-377.27Z"/>
          <path class="cls-1" d="M730.602,858.206c-17.911,0-33.134-5.995-45.417-17.91-12.044-9.203-21.68-25.95-29.399-51.048-6.594-21.444-11.692-48.788-14.741-79.077-6.692-66.478-3.029-137.751,10.05-195.544,9.405-41.557,23.415-75.621,41.64-101.245,22.632-31.819,51.276-50.343,85.137-55.059,47.729-6.65,93.283,8.786,131.727,44.635,50.008,46.631,78.1,116.768,92.86,167.393,18.479,63.382,26.771,133.34,22.749,191.936l-.262,3.819-1.384,3.569c-9.46,24.398-29.199,40.249-58.668,47.113-21.851,5.09-46.827,4.863-70.98,4.642-17.268-.156-35.121-.319-50.202,1.584-13.659,2.731-29.348,9.368-44.53,15.79-17.851,7.551-36.309,15.358-54.344,18.229-4.917.783-9.666,1.174-14.237,1.174ZM715.737,800.182l2.088,1.378,1.948,2.029c8.931,9.301,29.464,1.598,59.769-11.221,17.863-7.556,36.333-15.369,55.406-19.014l1.442-.232c18.739-2.466,38.688-2.285,57.983-2.109,42.502.393,71.631-.614,80.818-16.696,2.912-51.982-4.729-113.587-21.134-169.856-18.362-62.98-46.362-114.345-78.841-144.631-27.728-25.854-57.295-36.179-90.389-31.573-43.392,6.043-66.657,54.678-78.534,94.413-15.343,51.333-21.342,119.333-16.459,186.565,5.092,70.105,19.83,105.365,25.902,110.948Z"/>
        </g>
        <g>
          <path class="cls-3" d="M739.14,920.65c50.98-48.838,233.11-59.542,260.31-41.288,29.5,19.402,51.26,229.188,40.95,274.108-9.16,15.101-172.01,51.419-231.38,22.938-14.7-18.159-89.06-217.241-69.88-255.758Z"/>
          <path class="cls-1" d="M874.218,1212.157c-27.612,0-55.59-3.181-76.101-13.02l-5.118-2.456-3.572-4.412c-12.854-15.878-38.193-84.693-52.081-128.486-10.26-32.355-17.949-61.71-22.234-84.893-6.204-33.56-5.752-54.987,1.463-69.477l1.957-3.93,3.17-3.037c35.809-34.304,111.586-47.703,153.569-52.636,28.037-3.295,56.495-4.63,80.129-3.757,37.478,1.382,51.073,7.683,58.023,12.327,12.912,8.564,22.103,26.32,30.712,59.314,5.958,22.831,11.393,52.539,15.718,85.912,7.33,56.561,11.755,126.579,5.116,155.502l-.909,3.96-2.107,3.474c-5.303,8.743-14.878,15.99-46.184,25.093-19.655,5.715-43.977,10.891-68.484,14.575-18.977,2.853-45.845,5.946-73.068,5.946ZM826.271,1156.188c21.175,6.916,59.408,7.5,104.818,1.404,40.031-5.373,72.122-14.024,86.036-19.415,1.755-22.167.089-68.179-6.357-120.842-8.543-69.795-20.122-107.716-26.137-117.188-10.76-3.557-50.844-6.868-107.613.236-52.405,6.558-95.662,19.561-115.74,34.527-1.114,11.961,2.737,46.312,24.308,114.203,16.176,50.91,33.226,92.307,40.687,107.074ZM1023.411,1135.261h0s0,0,0,0ZM986.158,900.745h0Z"/>
        </g>
        <g>
          <path class="cls-3" d="M835.43,1301.624c-7.45-44.772,83.99-36.334,128.13-45.489,47.58-8.296,127.55-38.763,139.3,9.442,11.76,24.174,50.74,275.643,40.42,287.513-20.64,34.19-149.77,67.66-206.38,30.9-25.65-15.31-85.42-220.143-101.47-282.366Z"/>
          <path class="cls-1" d="M1004.819,1625.209c-3.67,0-7.288-.083-10.852-.25-28.618-1.339-52.322-7.938-70.468-19.615-9.466-5.837-18.989-17.382-34.229-53.348-8.922-21.057-19.23-49.21-30.637-83.677-20.749-62.694-39.842-130.273-47.613-160.4l-.275-1.069-.181-1.089c-2.388-14.348.789-27.624,9.186-38.392,19.463-24.958,60.628-28.311,100.438-31.553,14.569-1.187,28.331-2.307,38.253-4.365l.79-.15c8.3-1.447,18.061-3.717,28.395-6.12,23.84-5.543,50.855-11.835,74.491-11.365,45.352.884,59.979,26.84,64.689,43.7,10.692,27.551,26.349,131.468,29.485,152.757,5.316,36.086,9.5,69.45,11.783,93.946,1.303,13.988,2.018,25.354,2.124,33.783.16,12.762-.839,21.916-6.118,29.371-19.362,30.092-72.516,45.103-94.699,50.201-21.903,5.033-44,7.634-64.56,7.635ZM951.52,1563.412c21.215,13.083,62.834,15.076,106.568,5.026,33.778-7.762,54.984-19.664,61.727-26.154.36-13.403-3.046-55.828-14.596-132.674-11.659-77.571-21.853-125.193-25.127-133.211l-1.083-2.226-.64-2.627c-.722-2.963-1.711-7.021-17.236-7.323-17.359-.336-41.119,5.188-62.09,10.065-10.892,2.532-21.188,4.926-30.766,6.612-12.881,2.633-28,3.864-43.998,5.167-15.645,1.274-31.823,2.592-44.998,5.245-11.964,2.41-16.979,5.042-18.844,6.323,7.487,28.717,24.75,89.734,43.737,147.785,30.756,94.04,44.437,114.401,47.345,117.992Z"/>
        </g>
        <g>
          <path class="cls-4" d="M1432.11,573.071l-121.42,66.727-29.09,217.069-14.52,690.263-17.12,77.36,248.49,25.7-7.35-147.12-2.28-16.77,5.83-395.665,31.9-466.841-94.44-50.723Z"/>
          <path class="cls-1" d="M1525.094,1678.288l-305.857-31.633,22.693-102.543,14.498-689.19,30.968-231.086,144.576-79.453,120.837,64.901-32.963,482.399-5.792,393.097,2.17,15.96.053,1.073,8.817,176.476ZM1280.684,1602.325l191.123,19.766-5.83-116.691-2.39-17.579,5.914-398.905,30.791-450.611-68.043-36.545-98.264,54.001-27.211,203.052-14.542,691.335-11.547,52.178Z"/>
        </g>
        <g>
          <path class="cls-3" d="M1427.4,352.979c-154.14-9.623-209.76,368.626-165.38,412.765,25.03,39.381,89.42,4.469,140.15,5.079,59.66,4.174,135.29,41.378,164.96-4.793,40.42-146.588,14.41-403.428-139.73-413.051Z"/>
          <path class="cls-1" d="M1517.645,814.145c-21.418,0-44.496-4.905-66.857-9.658-16.935-3.6-34.435-7.32-49.631-8.462-.102,0-.203,0-.304,0-13.9,0-30.504,3.346-46.575,6.584-19.024,3.833-38.696,7.791-56.964,7.014-24.476-1.051-43.026-10.552-55.18-28.254-9.986-11.401-16.116-29.701-18.708-55.788-2.214-22.28-1.791-50.036,1.225-80.266,6.616-66.319,24.332-135.319,48.604-189.307,17.505-38.935,38.052-69.593,61.069-91.123,28.579-26.731,60.415-39.208,94.647-37.065h0c48.27,3.014,89.974,27.299,120.604,70.23,39.719,55.671,53.304,129.896,57.707,182.36,5.513,65.699-.264,135.797-15.85,192.321l-1.02,3.699-2.075,3.228c-14.141,22.006-36.666,33.592-66.95,34.436-1.24.034-2.489.051-3.742.051ZM1400.825,745.607c.549,0,1.099.003,1.648.01l1.456.06c18.883,1.321,38.434,5.477,57.341,9.496,41.683,8.859,70.508,13.692,82.736-.224,13.176-50.254,17.927-112.021,13.035-170.322-5.477-65.265-22.704-121.126-48.509-157.295-22.123-31.009-49.175-47.1-82.703-49.193-43.953-2.737-76.547,40.463-96.143,77.191-25.198,47.23-44.542,112.557-53.071,179.229-8.892,69.51-1.441,106.876,3.398,113.529l1.774,1.765,1.507,2.371c6.95,10.936,28.673,7.481,61.023.962,18.497-3.727,37.606-7.578,56.507-7.578Z"/>
        </g>
        <g>
          <path class="cls-3" d="M1278.08,860.895c60.38-36.543,240.53-7.378,263.13,16.339,24.59,25.334.28,234.647-19.54,276.21-12.23,12.734-179.12,12.741-230.91-27.944-10.41-20.905-39.78-231.216-12.68-264.605Z"/>
          <path class="cls-1" d="M1461.251,1186.154c-13.454,0-27.733-.504-41.967-1.503-38.566-2.708-108.571-11.419-144.097-39.327l-4.463-3.506-2.53-5.081c-9.104-18.284-18.902-90.907-22.951-136.634-2.992-33.785-4.123-64.086-3.271-87.627,1.233-34.089,6.333-54.896,16.535-67.466l2.766-3.408,3.755-2.272c42.409-25.667,119.3-22.255,161.359-17.938,28.089,2.883,56.162,7.77,79.048,13.759,36.247,9.486,48.164,18.574,53.946,24.612,10.763,11.158,15.886,30.478,17.129,64.555.859,23.562-.285,53.717-3.31,87.205-5.125,56.756-16.012,126.007-28.776,152.774l-1.752,3.675-2.82,2.936c-7.079,7.371-18.002,12.354-50.538,14.423-8.671.551-18.143.825-28.062.825ZM1311.986,1109.503c19.18,11.353,56.394,20.239,102.069,24.17,40.252,3.463,73.465,2.006,88.225-.225,6.524-21.237,14.884-66.453,20.024-119.189,6.813-69.91,3.745-109.403-.069-119.948-9.733-5.81-48.154-17.758-105.136-23.177-52.596-5.003-97.66-1.728-120.519,8.501-3.683,11.424-7.379,45.755-1.063,116.631,4.736,53.145,12.392,97.212,16.468,113.237ZM1509.059,1131.969h0s0,0,0,0ZM1523.596,895.226h0ZM1521.617,892.865h0s0,0,0,0ZM1297.977,876.341h0Z"/>
        </g>
        <g>
          <path class="cls-3" d="M1262.25,1232.187c6.12-45.031,90.93-9.98,135.78-5.714,47.89,6.103,133.25.552,130.22,50.136,4.08,26.595-33.04,278.671-46.4,286.981-29.81,26.62-163.01,20.54-206.19-31.33-19.97-22.21-16.48-235.81-13.41-300.073Z"/>
          <path class="cls-1" d="M1414.367,1604.259c-8.826,0-16.558-.4-22.25-.821-26.387-1.952-52.023-7.208-74.138-15.202-26.905-9.725-47.575-23.029-61.44-39.545-7.314-8.377-12.995-22.23-16.913-61.124-2.294-22.775-3.814-52.749-4.516-89.087-1.276-66.085.472-136.375,1.959-167.496l.053-1.101.148-1.092c1.961-14.429,8.924-26.187,20.136-34.001,25.968-18.1,66.25-9.164,105.207-.521,14.258,3.163,27.726,6.15,37.803,7.109l.8.089c8.353,1.065,18.343,1.773,28.92,2.524,24.405,1.731,52.067,3.694,74.501,11.109,43.093,14.244,49.365,43.419,48.867,60.927,2.059,30.432-14.982,141.729-17.005,154.789-5.591,36.09-11.458,69.241-16.521,93.348-2.891,13.765-5.568,24.847-7.958,32.939-3.614,12.239-7.269,20.691-14.499,26.258-20.545,17.315-56.746,20.898-83.157,20.898ZM1295.716,1516.932c16.361,18.747,55.454,32.924,100.121,36.228,34.613,2.559,58.419-2.58,66.777-6.807,4.303-12.693,13.597-54.289,25.294-131.267,11.804-77.678,16.149-126.25,15.391-134.878l-.375-2.443.165-2.693c.187-3.055.442-7.238-14.272-12.102-16.458-5.44-40.784-7.166-62.247-8.689-11.15-.791-21.689-1.539-31.335-2.752-13.08-1.283-27.88-4.566-43.54-8.04-15.316-3.398-31.153-6.911-44.515-8.259-12.167-1.227-17.72-.178-19.859.496-1.342,29.669-2.899,93.18-1.933,154.343,1.565,99.051,8.612,122.569,10.328,126.863ZM1503.328,1280.397c.002.012.004.023.005.035l-.005-.035Z"/>
        </g>
        <g>
          <path class="cls-4" d="M1166.5,1602.26c-98.94,72.82-726.309,320.33-761.5,381.08,5.204,96.27,39.745,377.3,95.12,373.62,176.55-1.95,266.33-281.27,423.9-341.25,157.58-59.98,539.08,104.63,557.91-65.04,28.6-311.59-247.44-352.47-315.43-348.41Z"/>
          <path class="cls-1" d="M499.073,2382.203c-8.146,0-19.351-2.412-30.685-12.457-16.006-14.188-40.039-48.379-63.844-180.943-13.45-74.896-22.24-158.303-24.716-204.103l-.405-7.498,3.764-6.498c10.14-17.504,40.218-40.626,154.055-96.577,78.023-38.348,177.979-83.448,274.645-127.063,146.543-66.12,298.076-134.491,339.671-165.106l6.001-4.417,7.438-.444c42.453-2.542,171.989,10.84,260.251,101.962,30.187,31.165,52.562,68.496,66.505,110.956,15.681,47.752,20.821,102.579,15.279,162.959l-.048.477c-3.301,29.745-15.898,53.447-37.44,70.447-57.995,45.77-168.767,31.956-286.042,17.331-94.675-11.805-192.573-24.012-250.515-1.959-63.143,24.035-118.231,91.62-171.506,156.979-73.891,90.653-150.287,184.387-260.53,185.911-.606.027-1.233.043-1.878.043ZM430.786,1992.157c3.155,47.712,11.792,125.023,24.573,194.28,21.491,116.46,41.404,140.949,46.116,145.288,86.122-1.949,151.617-82.297,220.928-167.33,57.467-70.503,116.892-143.407,192.65-172.245,69.665-26.517,173.893-13.52,274.689-.95,101.831,12.695,207.126,25.826,248.571-6.879,10.806-8.528,16.701-20.037,18.538-36.203,9.075-99.428-13.74-178.154-67.815-233.982-70.251-72.527-174.215-87.146-214.251-86.915-52.233,34.982-193.251,98.609-342.163,165.798-94.746,42.749-192.718,86.954-269.45,124.544-41.062,20.115-72.332,36.496-95.597,50.079-21.411,12.5-31.838,20.258-36.788,24.515Z"/>
        </g>
        <g>
          <path class="cls-3" d="M866.57,1607c-258.98,22.18-227.61,128.12-198.54,207.66,18.74,81.27,194.14,300.78,300.67,217.99,106.54-82.8-50.3-387.22-102.13-425.65Z"/>
          <path class="cls-1" d="M915.304,2076.181c-15.562,0-31.894-2.984-48.755-8.982-62.338-22.175-117.192-79.651-144.342-111.938-39.858-47.401-69.725-98.267-78.355-133.32-13.768-37.692-35.781-99.654-2.487-151.886,15.349-24.08,41.027-43.551,76.32-57.872,37.271-15.124,85.269-25.034,146.735-30.298l9.503-.814,7.662,5.681c29.562,21.92,67.564,88.882,91.125,139.565,21.091,45.371,56.604,133.039,57.48,210.413.597,52.66-14.887,91.63-46.02,115.826-20.212,15.707-43.516,23.626-68.866,23.626ZM857.853,1633.115c-50.525,4.969-91.262,13.631-121.213,25.784-25.399,10.306-43.151,23.177-52.762,38.254-18.757,29.426-7,68.281,7.829,108.854l.536,1.467.351,1.522c12.122,52.57,106.039,180.532,190.851,210.701,28.083,9.991,50.911,7.717,69.787-6.951,18.021-14.006,26.952-39.39,26.543-75.446-.562-49.622-19.801-118.777-52.785-189.731-27.075-58.243-54.201-98.476-69.137-114.453Z"/>
        </g>
        <g>
          <path class="cls-4" d="M893.74,1585.73c-17.25-45.73-207.35,8.05-255.72,72.6-64.78,107.7-6.02,185.43,41.75,181.53,38.3-13.25,5.07-38.63,35.6-93.22,30.18-70.35,203.19-109.58,178.37-160.91Z"/>
          <path class="cls-1" d="M676.234,1865.212c-27.962.002-55.591-16.953-73.187-45.31-13.524-21.795-20-48.379-18.727-76.879,1.419-31.77,12.218-64.636,32.097-97.687l.661-1.098.769-1.025c29.505-39.375,92.483-65.877,118.19-75.444,51.223-19.062,101.25-27.679,133.815-23.049,29.958,4.258,42.127,18.968,47.04,31.006,5.911,12.873,6.007,26.605.265,39.785-4.193,9.624-11.46,18.808-22.216,28.076-16.498,14.216-39.65,27.361-64.162,41.278-36.21,20.561-81.276,46.147-92.243,71.713l-.521,1.214-.645,1.152c-11.209,20.043-11.425,33.935-11.634,47.369-.276,17.744-.694,44.559-37.726,57.37l-3.013,1.042-3.178.26c-1.86.151-3.726.227-5.586.227ZM658.925,1672.49c-26.953,45.435-31.841,90.526-13.038,120.829,8.759,14.116,20.279,20.683,28.899,21.403.063-.03.124-.061.182-.089.252-2.263.312-6.119.358-9.105.245-15.758.615-39.479,17.432-70.092,18.147-40.486,68.579-69.119,113.128-94.414,18.041-10.244,35.082-19.919,47.809-29.111,11.374-8.215,15.347-13.263,16.689-15.478-3.663-1.463-13.088-3.438-30.713-2.093-19.246,1.471-43.214,6.54-67.49,14.273-51.462,16.394-95.682,41.364-113.256,63.876Z"/>
        </g>
        <g>
          <path class="cls-3" d="M623.52,1813l-180.52,241.92c18.66,81.21,220.13,318.92,310.77,206.37,90.64-112.55-78.64-409.88-130.25-448.29Z"/>
          <path class="cls-1" d="M693.967,2316.241c-9.196,0-18.76-1.13-28.657-3.405-64.604-14.859-126.588-75.104-157.786-109.691-45.917-50.906-80.887-106.872-89.092-142.579l-2.613-11.371,202.554-271.448,20.197,15.031c23.446,17.45,59.636,69.257,92.198,131.983,22.381,43.115,61.477,127.63,71.856,209.238,7.786,61.212-2.046,109.358-29.221,143.103-20.846,25.885-47.954,39.14-79.436,39.14ZM470.874,2059.717c9.753,25.369,36.061,67.5,74.088,109.66,46.322,51.355,94.306,85.736,131.649,94.324,24.664,5.674,42.945-.117,57.526-18.223,18.248-22.658,24.463-58.025,18.474-105.119-9.394-73.862-45.752-152.229-66.589-192.37-23.353-44.987-44.902-77.128-60.06-96.11l-155.088,207.838Z"/>
        </g>
        <g>
          <path class="cls-4" d="M649.44,1800.02c-35.43-44.09-225.505,83.12-255.614,171.39-32.693,141.58,59.934,205.97,111.144,184.57,37.44-28.28-8.28-44.28,5.75-115.21,7.99-88.13,184.48-193.22,138.72-240.75Z"/>
          <path class="cls-1" d="M483.994,2185.247c-23.11,0-47.441-9.28-68.253-26.844-22.058-18.615-38.255-44.837-46.841-75.83-9.631-34.768-9.509-74.077.365-116.835l.289-1.251.415-1.215c18.025-52.845,77.18-103.909,101.776-123.411,49.051-38.891,100.371-65.985,137.281-72.477,32.754-5.765,50.269,5.242,59.308,15.925,13.15,14.153,23.364,38.977-.234,77.856-12.87,21.206-33.528,43.81-55.399,67.74-34.616,37.877-73.852,80.808-76.874,114.14l-.12,1.317-.256,1.298c-5.341,26.999-.224,43.533,4.292,58.122,3.304,10.678,6.721,21.719,5.149,34.163-1.83,14.485-9.918,26.964-24.727,38.149l-2.539,1.917-2.936,1.227c-9.661,4.038-20.05,6.008-30.695,6.008ZM418.087,1978.4c-13.768,61.062-2.527,113.88,30.17,141.474,14.299,12.067,31.604,17.379,44.181,13.825,1.379-1.226,2.09-2.066,2.42-2.509-.156-2.402-1.947-8.191-3.281-12.502-5.28-17.062-13.231-42.756-5.829-81.565,5.246-49.781,50.11-98.872,89.734-142.229,17.352-18.985,33.74-36.918,44.628-52.444,12.052-17.188,11.73-23.726,11.662-24.354-.056-.086-.197-.285-.493-.592l-.813-.852c-2.327-.593-13.688-2.31-41.829,9.741-32.162,13.771-71.07,39.357-104.082,68.44-33.942,29.904-58.081,60.271-66.468,83.567Z"/>
        </g>
        <g>
          <path class="cls-4" d="M1394,1853.08l169.55,121.55-66.44,321.06c64.15,46.25,153.51,95.94,244.02,135.31,38.95-79.88,59.57-170.09,85.92-254.56l38.95-315.33-91.65-107.79-324.21-10.32-56.14,110.08Z"/>
          <path class="cls-1" d="M1753.209,2463.744l-22.134-9.628c-91.846-39.951-182.497-90.242-248.708-137.979l-13.254-9.556,66.43-321.013-173.848-124.632,73.257-143.642,351.365,11.185,106.058,124.734-40.585,328.566-.676,2.165c-6.705,21.495-13.194,43.917-19.47,65.601-18.673,64.518-37.98,131.231-67.856,192.502l-10.579,21.695ZM1525.143,2284.622c56.374,38.979,128.744,79.237,203.514,113.239,22.505-51.576,38.767-107.766,54.559-162.33,6.139-21.208,12.478-43.113,19.094-64.425l37.316-302.101-77.243-90.846-297.054-9.455-39.023,76.518,165.251,118.468-66.414,320.932Z"/>
        </g>
        <g>
          <path class="cls-3" d="M1192.63,1620.61c-52.87,116.89,122.63,318.31,267.33,299.11,30.95-2.58,107.45-140.1,291.41-92.83,24.07-28.36,12.89-48.13,20.63-73.06-98.28-27.21-535.1-220.89-579.37-133.22Z"/>
          <path class="cls-1" d="M1440.355,1946.202c-37.167,0-76.713-11.39-115.719-33.496-41.684-23.624-81.169-58.882-111.181-99.277-24.152-32.509-41.34-67.178-49.707-100.261-9.537-37.71-7.492-73.309,5.914-102.947l.466-.974c12.732-25.215,42.028-37.463,87.025-36.386,32.087.763,73.19,7.833,125.66,21.613,92.82,24.377,199.373,64.012,284.99,95.857,47.924,17.826,89.312,33.222,110.924,39.205l25.058,6.938-7.71,24.831c-1.754,5.651-2.049,11.634-2.39,18.562-.796,16.183-1.887,38.347-23.095,63.335l-10.211,12.03-15.282-3.927c-124.192-31.911-193.538,28.385-234.971,64.411-18.258,15.875-31.53,27.415-47.315,29.055-7.367.956-14.864,1.432-22.455,1.432ZM1215.286,1631.698c-8.49,19.272-9.385,42.518-2.66,69.109,6.764,26.746,21.045,55.293,41.299,82.555,50.647,68.171,125.251,112.385,186.933,112.387,5.046,0,10.005-.296,14.858-.898,4.158-2.25,13.631-10.487,21.329-17.181,21.91-19.05,55.021-47.839,100.773-66.553,49.631-20.302,104.092-24.562,162.122-12.725,2.673-6.447,2.979-12.691,3.389-21.004.095-1.934.193-3.923.324-5.97-23.649-7.878-55.59-19.759-93.427-33.833-84.571-31.457-189.823-70.607-280.22-94.348-47.954-12.594-86.326-19.314-114.053-19.974-27.687-.659-38.477,4.865-40.667,8.435ZM1455.026,1895.188h0Z"/>
        </g>
        <g>
          <path class="cls-3" d="M1643.3,2284.35c42.39,22.34,94.81,32.79,131.47,32.65,54.71-116.12,79.63-191.58,151.23-411.5-50.41-23.2-88.79-35.8-128.89-48.11-15.18-7.16-52.13,86.48-89.36,82.47-63.01-2.29-87.65-16.32-129.75,26.63,19.48,103.09,50.41,315.29,65.3,317.86Z"/>
          <path class="cls-1" d="M1774.128,2342.21c-34.368,0-91.225-9.047-140.626-34.54-15.101-5.896-20.22-23.622-24.062-36.931-3.61-12.502-7.65-29.874-12.351-53.109-8.499-42.006-17.627-95.55-26.455-147.33-6.303-36.972-12.257-71.893-17.403-99.129l-2.443-12.93,9.211-9.396c41.813-42.658,74.383-39.892,115.614-36.389,9.749.828,20.799,1.768,33.055,2.213l1.304.076c.967-.3,5.576-2.137,14.283-11.713,8.062-8.866,16.295-20.659,23.559-31.063,6.465-9.261,12.572-18.009,18.401-24.552,4.365-4.897,8.357-8.35,12.563-10.862,8.521-5.09,18.11-6.126,26.689-2.97,39.083,12.01,78.61,24.87,131.073,49.016l20.374,9.377-6.943,21.326c-69.766,214.287-95.869,294.467-152.396,414.44l-6.786,14.403-15.922.061c-.243,0-.491.002-.737.002ZM1660.368,2264.752c32.126,15.763,69.743,24.178,98.643,26.422,46.398-100.226,71.012-172.49,135.99-371.896-35.774-15.42-65.487-25.409-94.37-34.415-3.53,4.577-7.922,10.869-11.479,15.965-20.961,30.025-46.98,67.325-83.068,64.196-13.159-.499-24.612-1.472-34.739-2.332-32.624-2.771-46.431-3.946-66.052,12.707,4.601,25.191,9.696,55.076,15.041,86.427,7.87,46.164,16.008,93.899,23.666,133.183,8.764,44.961,13.871,62.784,16.37,69.743Z"/>
        </g>
        <g>
          <path class="cls-4" d="M1560,2511.93c-53.53-69.53-108.2-226.17-198.44-210.89-269.17,37.44-577.35,296.09-511.58,420.63,138.41,152.82,178.17,139.45,270.7,214.33l439.32-424.07Z"/>
          <path class="cls-1" d="M1122.15,2969.618l-17.328-14.022c-30.614-24.774-54.804-39.22-80.415-54.512-49.189-29.372-100.053-59.745-193.111-162.492l-2.127-2.348-1.48-2.803c-12.929-24.481-21.778-66.477,9.483-127.511,34.562-67.478,109.989-142.314,206.943-205.321,101.975-66.271,213.341-110.474,313.625-124.489,20.844-3.445,41.454-.195,61.266,9.665,16.335,8.131,31.961,20.562,47.77,38.004,26.992,29.781,49.458,68.518,71.183,105.978,14.763,25.454,28.707,49.497,42.016,66.785l13.751,17.86-471.575,455.206ZM871.013,2707.336c86.471,95.068,131.542,121.979,179.242,150.461,21.266,12.698,43.122,25.749,68.656,44.874l407.991-393.828c-10.76-16.199-21.438-34.612-32.557-53.782-37.363-64.422-79.711-137.434-128.577-129.166l-.735.113c-93.207,12.965-197.421,54.472-293.446,116.876-88.469,57.493-159.326,127.037-189.542,186.03-11.405,22.268-22.319,53.605-11.032,78.422Z"/>
        </g>
        <g>
          <path class="cls-3" d="M1769.82,2456.07c6.31-21.76-158.69-76.94-280.15-158.07-52.7,29.97-115.72,101.18-164.99,107.1-93.39-13.17-191.16,24.34-253.8,81.9-62.64,57.55-177.89,144.61-122.03,263.45,55.76,73.68,153.35,227.75,186.77,224.5,125.08-15.85,366.47-37.04,399.31-71.59,39.72-18.52,222.86-407.2,234.89-447.29Z"/>
          <path class="cls-1" d="M1134.294,3000.224c-20.834.002-42.583-17.011-78.087-60.494-25.884-31.701-55.496-73.561-81.621-110.493-16.761-23.692-32.591-46.071-45.837-63.574l-1.591-2.103-1.121-2.386c-26.032-55.381-22.543-111.487,10.369-166.76,26.526-44.548,67.451-81.153,100.334-110.566,6.057-5.418,11.778-10.535,17.085-15.411,34.509-31.71,77.498-56.878,124.316-72.779,48.627-16.518,99.122-22.036,146.298-16.023,23.406-4.551,56.888-31.497,86.562-55.38,21.893-17.62,44.53-35.839,66.208-48.167l13.525-7.691,12.938,8.643c58.073,38.79,126.599,71.612,181.661,97.985,29.047,13.913,54.133,25.929,72.007,36.142,10.709,6.119,18.26,11.252,23.763,16.154,16.112,14.353,15.017,28.572,12.929,35.771l-.066.225c-7.123,23.737-59.93,138.313-108.659,235.763-29.165,58.322-55.717,108.406-76.788,144.838-33.373,57.703-48.437,73.562-58.47,79.871-13.528,12.099-42.181,25.415-134.718,40.845-62.085,10.353-135.92,18.864-201.063,26.373-27.473,3.167-53.423,6.159-75.478,8.954l-.729.081c-1.253.122-2.509.184-3.766.184ZM1137.53,2950.189s0,0,0,0c0,0,0,0,0,0ZM970.61,2737.438c13.362,17.768,28.814,39.61,45.136,62.683,24.659,34.858,50.157,70.903,73.468,100.216,29.515,37.114,42.509,46.713,46.857,49.149,21.516-2.696,46.282-5.552,72.422-8.565,63.775-7.352,136.06-15.685,196.493-25.678,92.583-15.309,109.272-27.041,111.729-29.31l3.233-3.4,3.133-1.462c4.413-3.831,31.313-32.199,120.675-211.646,46.303-92.98,84.572-176.872,97.589-209.022-3.919-2.551-9.984-6.162-19.304-11.102-15.541-8.236-35.444-17.769-58.489-28.807-52.332-25.065-116.514-55.808-174.214-92.611-14.643,9.824-30.334,22.453-46.728,35.647-37.905,30.507-77.101,62.053-114.924,66.598l-3.268.393-3.259-.46c-79.559-11.22-171.103,18.417-233.224,75.501-5.557,5.105-11.399,10.331-17.585,15.864-76.835,68.726-137.376,132.484-99.742,216.012Z"/>
        </g>
      </g>
    </g>
  </g>
</svg>
